<mxfile host="www.draw.io" modified="2020-01-16T17:08:17.755Z" agent="Mozilla/5.0 (X11; Linux x86_64) AppleWebKit/537.36 (KHTML, like Gecko) Chrome/79.0.3945.117 Safari/537.36" etag="PgwgoAh_IYznJEi1_LoJ" version="12.5.5" type="github">
  <diagram id="VoH5qmbEffebgPry_U-H" name="Page-1">
    <mxGraphModel dx="1008" dy="419" grid="1" gridSize="10" guides="1" tooltips="1" connect="1" arrows="1" fold="1" page="1" pageScale="1" pageWidth="850" pageHeight="1100" math="0" shadow="0">
      <root>
        <mxCell id="0"/>
        <mxCell id="1" parent="0"/>
        <mxCell id="-Y-Mi_pXA24UFnkAIFTT-1" value="" style="edgeStyle=orthogonalEdgeStyle;rounded=0;orthogonalLoop=1;jettySize=auto;html=1;" parent="1" source="-Y-Mi_pXA24UFnkAIFTT-2" target="-Y-Mi_pXA24UFnkAIFTT-4" edge="1">
          <mxGeometry relative="1" as="geometry"/>
        </mxCell>
        <mxCell id="-Y-Mi_pXA24UFnkAIFTT-2" value="&lt;div&gt;get merge request&lt;/div&gt;&amp;nbsp;with ref and a branch " style="ellipse;whiteSpace=wrap;html=1;fillColor=#d5e8d4;strokeColor=#82b366;" parent="1" vertex="1">
          <mxGeometry x="230" y="20" width="120" height="80" as="geometry"/>
        </mxCell>
        <mxCell id="-Y-Mi_pXA24UFnkAIFTT-3" value="" style="edgeStyle=orthogonalEdgeStyle;rounded=0;orthogonalLoop=1;jettySize=auto;html=1;" parent="1" source="-Y-Mi_pXA24UFnkAIFTT-4" target="-Y-Mi_pXA24UFnkAIFTT-5" edge="1">
          <mxGeometry relative="1" as="geometry"/>
        </mxCell>
        <mxCell id="-Y-Mi_pXA24UFnkAIFTT-4" value="&lt;div&gt;find&lt;/div&gt;&lt;div&gt;most recent common ancestor&lt;/div&gt;" style="whiteSpace=wrap;html=1;aspect=fixed;fillColor=#d5e8d4;strokeColor=#82b366;" parent="1" vertex="1">
          <mxGeometry x="250" y="130" width="80" height="80" as="geometry"/>
        </mxCell>
        <mxCell id="-Y-Mi_pXA24UFnkAIFTT-5" value="apply ephemeral fixups &amp;amp; calculate merge commit" style="whiteSpace=wrap;html=1;aspect=fixed;fillColor=#d5e8d4;strokeColor=#82b366;" parent="1" vertex="1">
          <mxGeometry x="235" y="245" width="110" height="110" as="geometry"/>
        </mxCell>
        <mxCell id="-Y-Mi_pXA24UFnkAIFTT-6" value="Yes" style="edgeStyle=orthogonalEdgeStyle;rounded=0;orthogonalLoop=1;jettySize=auto;html=1;" parent="1" source="-Y-Mi_pXA24UFnkAIFTT-8" target="-Y-Mi_pXA24UFnkAIFTT-9" edge="1">
          <mxGeometry relative="1" as="geometry"/>
        </mxCell>
        <mxCell id="-Y-Mi_pXA24UFnkAIFTT-7" value="No" style="edgeStyle=orthogonalEdgeStyle;rounded=0;orthogonalLoop=1;jettySize=auto;html=1;entryX=0.5;entryY=0;entryDx=0;entryDy=0;" parent="1" source="-Y-Mi_pXA24UFnkAIFTT-8" target="-Y-Mi_pXA24UFnkAIFTT-15" edge="1">
          <mxGeometry relative="1" as="geometry">
            <Array as="points">
              <mxPoint x="285" y="500"/>
              <mxPoint x="285" y="500"/>
            </Array>
          </mxGeometry>
        </mxCell>
        <mxCell id="-Y-Mi_pXA24UFnkAIFTT-8" value="&lt;div&gt;are there&lt;/div&gt;&lt;div&gt;ephemeralities?&lt;br&gt;&lt;/div&gt;" style="rhombus;whiteSpace=wrap;html=1;fillColor=#d5e8d4;strokeColor=#82b366;" parent="1" vertex="1">
          <mxGeometry x="250" y="400" width="80" height="80" as="geometry"/>
        </mxCell>
        <mxCell id="-Y-Mi_pXA24UFnkAIFTT-9" value="report ephemoerals" style="whiteSpace=wrap;html=1;aspect=fixed;fillColor=#d5e8d4;strokeColor=#82b366;" parent="1" vertex="1">
          <mxGeometry x="390" y="400" width="80" height="80" as="geometry"/>
        </mxCell>
        <mxCell id="-Y-Mi_pXA24UFnkAIFTT-10" value="&lt;div&gt;No&lt;/div&gt;" style="edgeStyle=orthogonalEdgeStyle;rounded=0;orthogonalLoop=1;jettySize=auto;html=1;entryX=0;entryY=0.5;entryDx=0;entryDy=0;" parent="1" source="-Y-Mi_pXA24UFnkAIFTT-12" target="-Y-Mi_pXA24UFnkAIFTT-16" edge="1">
          <mxGeometry relative="1" as="geometry">
            <mxPoint x="405" y="670" as="targetPoint"/>
            <Array as="points"/>
          </mxGeometry>
        </mxCell>
        <mxCell id="-Y-Mi_pXA24UFnkAIFTT-11" value="" style="edgeStyle=orthogonalEdgeStyle;rounded=0;orthogonalLoop=1;jettySize=auto;html=1;" parent="1" source="-Y-Mi_pXA24UFnkAIFTT-12" target="-Y-Mi_pXA24UFnkAIFTT-18" edge="1">
          <mxGeometry relative="1" as="geometry"/>
        </mxCell>
        <mxCell id="-Y-Mi_pXA24UFnkAIFTT-12" value="&lt;div&gt;Passes&lt;/div&gt;&lt;div&gt;Constraint&lt;/div&gt;&lt;div&gt;Check?&lt;br&gt;&lt;/div&gt;" style="rhombus;whiteSpace=wrap;html=1;fillColor=#d5e8d4;strokeColor=#82b366;" parent="1" vertex="1">
          <mxGeometry x="260" y="630" width="80" height="80" as="geometry"/>
        </mxCell>
        <mxCell id="-Y-Mi_pXA24UFnkAIFTT-13" value="" style="edgeStyle=orthogonalEdgeStyle;rounded=0;orthogonalLoop=1;jettySize=auto;html=1;" parent="1" source="-Y-Mi_pXA24UFnkAIFTT-5" target="-Y-Mi_pXA24UFnkAIFTT-8" edge="1">
          <mxGeometry relative="1" as="geometry">
            <mxPoint x="285" y="365" as="sourcePoint"/>
          </mxGeometry>
        </mxCell>
        <mxCell id="-Y-Mi_pXA24UFnkAIFTT-14" value="" style="edgeStyle=orthogonalEdgeStyle;rounded=0;orthogonalLoop=1;jettySize=auto;html=1;" parent="1" source="-Y-Mi_pXA24UFnkAIFTT-15" target="-Y-Mi_pXA24UFnkAIFTT-12" edge="1">
          <mxGeometry relative="1" as="geometry"/>
        </mxCell>
        <mxCell id="-Y-Mi_pXA24UFnkAIFTT-15" value="&lt;div&gt;apply&lt;/div&gt;&lt;div&gt;woql&lt;/div&gt;&lt;div&gt;fixup&lt;/div&gt;&lt;div&gt;query&lt;br&gt;&lt;/div&gt;" style="whiteSpace=wrap;html=1;aspect=fixed;fillColor=#d5e8d4;strokeColor=#82b366;" parent="1" vertex="1">
          <mxGeometry x="250" y="510" width="80" height="80" as="geometry"/>
        </mxCell>
        <mxCell id="-Y-Mi_pXA24UFnkAIFTT-16" value="&lt;div&gt;Report&lt;/div&gt;&lt;div&gt;Constraint&lt;/div&gt;&lt;div&gt;Violations&lt;br&gt;&lt;/div&gt;" style="shape=step;perimeter=stepPerimeter;whiteSpace=wrap;html=1;fixedSize=1;fillColor=#d5e8d4;strokeColor=#82b366;" parent="1" vertex="1">
          <mxGeometry x="405" y="630" width="120" height="80" as="geometry"/>
        </mxCell>
        <mxCell id="-Y-Mi_pXA24UFnkAIFTT-17" value="" style="edgeStyle=orthogonalEdgeStyle;rounded=0;orthogonalLoop=1;jettySize=auto;html=1;" parent="1" source="-Y-Mi_pXA24UFnkAIFTT-18" target="-Y-Mi_pXA24UFnkAIFTT-19" edge="1">
          <mxGeometry relative="1" as="geometry"/>
        </mxCell>
        <mxCell id="-Y-Mi_pXA24UFnkAIFTT-18" value="advance head" style="whiteSpace=wrap;html=1;aspect=fixed;fillColor=#d5e8d4;strokeColor=#82b366;" parent="1" vertex="1">
          <mxGeometry x="260" y="740" width="80" height="80" as="geometry"/>
        </mxCell>
        <mxCell id="-Y-Mi_pXA24UFnkAIFTT-19" value="report success" style="ellipse;whiteSpace=wrap;html=1;fillColor=#d5e8d4;strokeColor=#82b366;" parent="1" vertex="1">
          <mxGeometry x="405" y="740" width="120" height="80" as="geometry"/>
        </mxCell>
      </root>
    </mxGraphModel>
  </diagram>
</mxfile>
